<svg xmlns="http://www.w3.org/2000/svg" width="240" height="240" viewBox="0 0 240 240" role="img" aria-label="Джуно · космонавт">
<defs><linearGradient id="sky" x2="0" y2="1"><stop stop-color="#222e58"/><stop offset="1" stop-color="#69579f"/></linearGradient><linearGradient id="shirt" x2="1" y2="1"><stop stop-color="#66e5e0"/><stop offset=".22" stop-color="#d2d8e0"/><stop offset="1" stop-color="#d2d8e0"/></linearGradient></defs>
<rect x="0" y="0" width="240" height="240" fill="url(#sky)"/>
<defs><clipPath id="forelock"><rect x="75" y="68" width="90" height="24"/></clipPath><clipPath id="sideLocks"><rect x="70" y="92" width="18" height="58"/><rect x="153" y="92" width="23" height="58"/></clipPath></defs>
<rect x="12" y="12" width="216" height="216" fill="none" stroke="#ffffff" stroke-opacity=".14" stroke-width="2"/>
<rect x="25" y="29" width="8" height="8" fill="#66e5e0"/><rect x="199" y="40" width="6" height="6" fill="#66e5e0"/><rect x="31" y="185" width="5" height="5" fill="#ffffff"/><rect x="193" y="176" width="8" height="8" fill="#66e5e0"/>
<rect x="21" y="183" width="198" height="57" fill="#172334" fill-opacity=".42"/>
<rect x="46" y="181" width="148" height="63" fill="#101a29"/><rect x="57" y="170" width="126" height="41" fill="url(#shirt)"/><rect x="68" y="163" width="18" height="29" fill="#d2d8e0"/><rect x="154" y="163" width="18" height="29" fill="#d2d8e0"/>
<path d="M94 170h11l17 25h-12zm52 0h-11l-17 25h12z" fill="#66e5e0"/><rect x="115" y="183" width="10" height="10" fill="#3b506b"/>
<rect x="103" y="141" width="35" height="35" fill="#70413b"/><rect x="107" y="141" width="28" height="31" fill="#9a604b"/>
<rect x="76" y="57" width="92" height="25" fill="#292a35"/><rect x="78" y="52" width="77" height="12" fill="#655c80"/>
<rect x="75" y="68" width="90" height="82" fill="#9a604b"/><rect x="75" y="68" width="13" height="78" fill="#70413b"/><rect x="88" y="140" width="64" height="10" fill="#70413b"/>
<rect x="64" y="98" width="14" height="22" fill="#9a604b"/><rect x="162" y="98" width="14" height="22" fill="#70413b"/>
<g clip-path="url(#forelock)"><rect x="76" y="57" width="92" height="25" fill="#292a35"/><rect x="78" y="52" width="77" height="12" fill="#655c80"/></g><g clip-path="url(#sideLocks)"><rect x="76" y="57" width="92" height="25" fill="#292a35"/><rect x="78" y="52" width="77" height="12" fill="#655c80"/></g>
<rect x="91" y="105" width="19" height="10" fill="#fff1d9"/><rect x="132" y="105" width="19" height="10" fill="#fff1d9"/><rect x="98" y="106" width="9" height="9" fill="#263244"/><rect x="139" y="106" width="9" height="9" fill="#263244"/>
<rect x="98" y="106" width="4" height="4" fill="#ffffff"/><rect x="139" y="106" width="4" height="4" fill="#ffffff"/><rect x="117" y="114" width="11" height="18" fill="#70413b"/><rect x="111" y="135" width="27" height="6" fill="#743f48"/><rect x="116" y="136" width="15" height="4" fill="#f0b2a0"/>
<rect x="55" y="43" width="130" height="112" fill="#b9c9d8" fill-opacity=".38" stroke="#e4f5f7" stroke-width="7"/><rect x="66" y="51" width="108" height="89" fill="#71d6d8" fill-opacity=".16" stroke="#d8ffff" stroke-width="3"/><rect x="75" y="169" width="22" height="13" fill="#66e5e0"/>
<rect x="77" y="198" width="86" height="5" fill="#66e5e0"/><rect x="84" y="215" width="72" height="3" fill="#ffffff" fill-opacity=".38"/>
<text x="120" y="232" text-anchor="middle" fill="#ffffff" fill-opacity=".92" font-family="system-ui,sans-serif" font-size="9" font-weight="700" letter-spacing="1.1">JUNO</text>
</svg>