<svg xmlns="http://www.w3.org/2000/svg" width="240" height="240" viewBox="0 0 240 240" role="img" aria-label="Иллюстративный портрет: Майкл Сэйлор; не владелец участка">
<defs>
 <linearGradient id="background" x2="0" y2="1"><stop stop-color="#2b5970"/><stop offset="1" stop-color="#142a3a"/></linearGradient>
 <pattern id="micro" width="8" height="8" patternUnits="userSpaceOnUse"><path d="M8 0H0V8" fill="none" stroke="#c7e7b1" stroke-opacity=".07"/></pattern>
</defs>
<rect width="240" height="240" fill="url(#background)"/>
<rect width="240" height="240" fill="url(#micro)"/>
<rect x="25" y="25" width="8" height="8" fill="#76adb9"/>
<rect x="205" y="39" width="6" height="6" fill="#76adb9"/>
<rect x="31" y="193" width="181" height="45" fill="#1c303e"/><rect x="46" y="180" width="149" height="58" fill="#2c4250"/><rect x="92" y="163" width="60" height="24" fill="#c59c77"/><path d="M91 180H154L131 238H111Z" fill="#d1d9d5"/><path d="M121 198L131 206L126 221L132 240H111L117 221L112 207Z" fill="#436b6d"/><path d="M63 180H88L108 238H86L73 219L80 211Z" fill="#3a5562"/><path d="M156 180H180L164 211L171 219L152 238H137Z" fill="#324f5c"/><rect x="76" y="58" width="88" height="104" fill="#d8b58c"/><rect x="164" y="66" width="14" height="86" fill="#b58a65"/><rect x="66" y="96" width="11" height="30" fill="#c4a07b"/><rect x="172" y="96" width="10" height="26" fill="#a98562"/><rect x="82" y="48" width="72" height="16" fill="#e1c9a4"/><rect x="70" y="50" width="97" height="19" fill="#a8b0a9"/><rect x="85" y="36" width="69" height="17" fill="#cdd2c3"/><rect x="77" y="45" width="49" height="13" fill="#d8ddca"/><rect x="68" y="64" width="15" height="34" fill="#b6bcae"/><rect x="161" y="58" width="16" height="39" fill="#7e928b"/><rect x="134" y="46" width="30" height="14" fill="#d4d5c0"/><rect x="91" y="58" width="50" height="8" fill="#ebddbf"/><rect x="90" y="91" width="24" height="6" fill="#8a8165"/><rect x="133" y="91" width="25" height="6" fill="#8a8165"/><rect x="90" y="103" width="23" height="10" fill="#e6debe"/><rect x="135" y="103" width="22" height="10" fill="#e6debe"/><rect x="104" y="103" width="7" height="10" fill="#517c79"/><rect x="136" y="103" width="7" height="10" fill="#517c79"/><rect x="119" y="110" width="10" height="24" fill="#c19d75"/><rect x="118" y="132" width="17" height="5" fill="#ab8865"/><rect x="80" y="134" width="19" height="20" fill="#a9b0a0"/><rect x="150" y="133" width="15" height="23" fill="#9ba897"/><rect x="91" y="151" width="65" height="17" fill="#b5bbaa"/><rect x="101" y="168" width="47" height="10" fill="#bac2b0"/><rect x="111" y="178" width="28" height="7" fill="#a4b09f"/><rect x="96" y="138" width="58" height="9" fill="#d5d4bc"/><rect x="107" y="148" width="36" height="4" fill="#867b61"/><rect x="116" y="156" width="22" height="6" fill="#d3d9c0"/><rect x="67" y="205" width="11" height="11" fill="#d4b259"/><text x="69" y="214" fill="#3b493d" font-size="9" font-weight="800">₿</text>
</svg>
